# xmcd
#
# Track frame offsets:
#	150
#	13130
#	25317
#	43932
#	52500
#	60662
#	72337
#	85570
#	95947
#	111745
#	123807
#	135010
#	145017
#	154715
#	168667
#	180245
#	189080
#	199420
#	211312
#	218765
#	230332
#	246772
#	260182
#	274482
#	284932
#	298112
#	308685
#	318622
#
# Disc length: 4453 seconds
#
# Revision: 1
# Processed by: cddbd v1.5.2PL0 Copyright (c) Steve Scherf et al.
# Submitted via: audiograbber 1.83.01
#
DISCID=a911631c
DTITLE=The Stoneman Family - 28 Big Ones[The Stoneman Family]
DYEAR=2000
DGENRE=Country
TTITLE0=100 Years Ago
TTITLE1=Life's Railway To Heaven
TTITLE2=When The Snowflakes Fall Again
TTITLE3=Turn Me Loose
TTITLE4=In The Sweet Bye And Bye
TTITLE5=Orange Blossom Breakdown (Inst.)
TTITLE6=Family Life
TTITLE7=Little Susie
TTITLE8=Somebody's Waiting For Me
TTITLE9=On The Banks Of The Wabash
TTITLE10=That Pal Of Mine
TTITLE11=Snow Deer
TTITLE12=Springtime In The Mountains
TTITLE13=Lee Highway Blues (Inst.)
TTITLE14=Going Home
TTITLE15=Nobody's Darling But Mine
TTITLE16=When The Roses Bloom Again
TTITLE17=I Want To Wander
TTITLE18=Lonesome Banjo (Inst.)
TTITLE19=Guilty
TTITLE20=White Lighting #2
TTITLE21=The Wreck Of The Number Nine
TTITLE22=Wild Bill Hickok
TTITLE23=It's Rain (Inst.)
TTITLE24=The Heroes Of Bataan
TTITLE25=Out Of School
TTITLE26=Girl From Galak (Inst.)
TTITLE27=The Sinking Of The Titanic
EXTD=
EXTT0=
EXTT1=
EXTT2=
EXTT3=
EXTT4=
EXTT5=
EXTT6=
EXTT7=
EXTT8=
EXTT9=
EXTT10=
EXTT11=
EXTT12=
EXTT13=
EXTT14=
EXTT15=
EXTT16=
EXTT17=
EXTT18=
EXTT19=
EXTT20=
EXTT21=
EXTT22=
EXTT23=
EXTT24=
EXTT25=
EXTT26=
EXTT27=
PLAYORDER=
